<svg xmlns="http://www.w3.org/2000/svg" viewBox="0 0 73.24 69.87"><defs><style>.cls-1{stroke:#fff;stroke-miterlimit:10;stroke-width:4px;}</style></defs><g id="Layer_2" data-name="Layer 2"><g id="Layer_1-2" data-name="Layer 1"><path class="cls-1" d="M2,21.47a19.21,19.21,0,0,1,1.2-7.74C5.52,7.76,9.7,4,15.71,2.53,21.9,1.06,27.4,2.67,32.18,7a22.3,22.3,0,0,1,4.26,5.29c.18.31.18.31.37,0a21.7,21.7,0,0,1,7.81-7.91,16.78,16.78,0,0,1,6.6-2.22A17.29,17.29,0,0,1,64.65,6.05a18,18,0,0,1,6.19,10.54,26.22,26.22,0,0,1,.34,6.56,37.08,37.08,0,0,1-.84,6.48,26.91,26.91,0,0,1-4.44,9.8,54.6,54.6,0,0,1-6.21,7c-3.1,3-6.34,5.89-9.54,8.79-4.51,4.07-9,8.2-13.3,12.49-.18.18-.28.18-.46,0-3.59-3.57-7.28-7-11-10.43-3-2.72-6-5.43-9-8.17a82,82,0,0,1-7.1-7.22A28.83,28.83,0,0,1,3.16,30.67a33.77,33.77,0,0,1-1-6.18C2.08,23.55,2,22.61,2,21.47Z"/></g></g></svg>