<svg xmlns="http://www.w3.org/2000/svg" viewBox="0 0 121.53 121.53"><defs><style>.cls-1{fill:#fff;}.cls-2{fill:#080808;}.cls-3{fill:#6dbd4b;}</style></defs><g id="Layer_2" data-name="Layer 2"><g id="Layer_1-2" data-name="Layer 1"><rect class="cls-1" width="121.53" height="121.53" rx="60.77"/><path class="cls-2" d="M59.67,93.27c-8.49,0-17,0-25.47,0-.91,0-1.11-.23-1.1-1.11,0-3.83,0-7.65,0-11.48,0-.77-.21-1-1-.93s-1.67,0-2.51,0a.55.55,0,0,1-.59-.56c0-1.31,0-2.63,0-3.94a.57.57,0,0,1,.59-.58c.94,0,1.88,0,2.82,0,.7,0,.73-.32.53-1.6a25,25,0,0,1,.06-7.81c.15-.95-.07-1.09-.62-1.07-.87,0-1.74,0-2.61,0-.57,0-.82-.1-.77-.79a16.34,16.34,0,0,0,0-3.28c-.12-.9.16-1,.8-1,.83,0,1.68,0,2.51,0,.63,0,.84-.15.66-1.26a24.14,24.14,0,0,1,0-7.82c.18-1.09.08-1.38-.57-1.36-.9,0-1.81,0-2.72,0-.63,0-.73-.26-.65-1a19,19,0,0,0,0-3.29c-.05-.65.17-.8.7-.78.81,0,1.62,0,2.42,0s.93-.24.93-1c0-3.86,0-7.72,0-11.57,0-.82.24-1,1-1q11.32,0,22.66,0c.94,0,1.08.33,1,1.39a9.8,9.8,0,0,0,0,2.48c.12,1-.1,1.22-.93,1.22-5.37,0-10.74,0-16.11,0-.8,0-1.87-.26-2.33.15s-.16,1.57-.17,2.4c0,1.68,0,3.36,0,5,0,.63.13.87.82.87,2.21,0,2.21,0,2.21,2.25v.2c0,.8.26,1.8-.11,2.36s-1.49.2-2.27.22c-.56,0-.65.26-.65.74,0,3,0,6,0,9,0,.54.1.85.71.75H39c2.22.05,2.22.05,2.22,2.25,0,.1,0,.2,0,.3,0,.8.33,1.79-.14,2.34s-1.46.16-2.22.16c-.54,0-.67.18-.67.69,0,3,0,6,0,9a.77.77,0,0,0,.72.79c.75,0,1.76-.39,2.2.19s.1,1.43.11,2.16v.1c0,.81.27,1.81-.11,2.37s-1.49.16-2.27.21S38,80,38.3,81.41a14.54,14.54,0,0,1-.07,5.5c-.32,1.62.41,1.28,1,1.28q13.49,0,27,0c4.7,0,9.39,0,14.09,0a1,1,0,0,0,1-1c0-6.44,0-12.89,0-19.33,0-.79.16-1.12,1.08-1a14.15,14.15,0,0,0,2.91,0c1-.11,1.11.24,1.1,1,0,7.11,0,14.23,0,21.34,0,1-.06,2,0,3s-.26,1.05-1.07,1.05C76.72,93.26,68.2,93.27,59.67,93.27Z"/><path class="cls-3" d="M84.54,59.73A18.33,18.33,0,1,1,99.33,44.86,18.38,18.38,0,0,1,84.54,59.73Zm1.86-31.1A14.23,14.23,0,0,0,67,41.67a14.39,14.39,0,0,0,13.79,14.5c9.74.2,17.63-9.29,13.81-19.25A14.57,14.57,0,0,0,86.4,28.63Z"/><path class="cls-3" d="M61.44,68.88c3.68,0,7.37,0,11.06,0,.68,0,1,.15.92.89-.11,1,.44,2.34-.23,3s-1.92.16-2.92.17c-6.67,0-13.35,0-20,0-.75,0-1.12-.15-1-1,.12-1-.42-2.27.23-2.9s1.86-.16,2.82-.16C55.33,68.87,58.39,68.88,61.44,68.88Z"/><path class="cls-3" d="M53.32,65c-1,0-2,0-3,0-.82,0-1.22-.11-1.11-1s-.42-2.26.23-2.89S51.32,61,52.29,61c4.52,0,9.06,0,13.58,0,.92,0,1.2.28,1.11,1.15a12.26,12.26,0,0,0,0,2c0,.72-.23.93-.92.92C61.81,65,57.57,65.1,53.32,65Z"/><path class="cls-3" d="M52.65,57c-.86,0-1.72,0-2.58,0-.6,0-.89-.14-.84-.79.07-1-.41-2.35.18-3s2-.22,3-.23c2.25,0,4.5,0,6.74,0,.74,0,1.07.16,1,1a10.83,10.83,0,0,0,0,2.13c.08.73-.15,1-.8.95C57.09,57,54.87,57,52.65,57Z"/><path class="cls-2" d="M79.15,49.61c-.33,0-.47-.21-.63-.37-2-2-4-4-6.06-6-.35-.35-.45-.65,0-1l.14-.14c.74-.68,1.33-1.9,2.19-2S76.22,41.36,77,42s1.28,1.89,2.13,1.82,1.35-1.18,2-1.85c2-2.06,4-4.11,6-6.2a.78.78,0,0,1,1.16,0c.55.6,1.14,1.17,1.73,1.73,1,.9,0,1.11-5.89,5.12A12.21,12.21,0,0,0,80,48.7,2.74,2.74,0,0,1,79.15,49.61Z"/></g></g></svg>