<svg xmlns="http://www.w3.org/2000/svg" viewBox="0 0 70.52 69.93"><defs><style>.cls-1{fill:#fff;}.cls-2{fill:#6dbd4b;}</style></defs><g id="Layer_2" data-name="Layer 2"><g id="Layer_1-2" data-name="Layer 1"><path class="cls-1" d="M30.6,69.91c-8.49,0-17,0-25.48,0-.9,0-1.11-.24-1.1-1.11.05-3.83,0-7.66.05-11.48,0-.78-.22-1-1-.94s-1.68,0-2.52,0A.55.55,0,0,1,0,55.87c0-1.31,0-2.63,0-3.95a.56.56,0,0,1,.59-.57c.94,0,1.88,0,2.82,0,.7,0,.73-.32.53-1.6A24.65,24.65,0,0,1,4,42c.15-1-.07-1.09-.62-1.08-.87,0-1.75,0-2.62,0-.56,0-.81-.1-.76-.79a16.34,16.34,0,0,0,0-3.28c-.12-.9.15-1,.79-1,.84,0,1.68,0,2.52,0,.62,0,.84-.15.66-1.27a23.8,23.8,0,0,1,0-7.81c.17-1.09.08-1.39-.57-1.37-.91,0-1.81,0-2.72,0-.64,0-.74-.27-.66-1A17.22,17.22,0,0,0,0,21.1c0-.65.18-.8.71-.78.81,0,1.62-.05,2.42,0s.93-.25.92-1c0-3.86,0-7.72,0-11.58,0-.81.25-1,1-1q11.33,0,22.65,0c.95,0,1.08.32.95,1.39a10.29,10.29,0,0,0,0,2.48c.13,1-.09,1.22-.92,1.21-5.37,0-10.74,0-16.11,0-.8,0-1.87-.26-2.33.15s-.16,1.57-.18,2.4c0,1.68,0,3.35,0,5,0,.64.13.87.82.87,2.22,0,2.22,0,2.22,2.25v.2c0,.81.26,1.8-.11,2.37s-1.49.2-2.27.22c-.57,0-.65.25-.65.74,0,3,0,6,0,9,0,.54.1.85.71.75h.1c2.22,0,2.22,0,2.22,2.24v.3c0,.8.32,1.8-.15,2.34s-1.45.17-2.21.16c-.54,0-.68.19-.67.7,0,3,0,6,0,9a.77.77,0,0,0,.73.79c.75,0,1.76-.39,2.2.19s.09,1.42.11,2.16v.1c0,.81.27,1.81-.11,2.36s-1.49.17-2.27.21S9,56.63,9.22,58a14.34,14.34,0,0,1-.06,5.5c-.32,1.62.41,1.29.94,1.29h27c4.69,0,9.39,0,14.08,0a1,1,0,0,0,1-1c0-6.45,0-12.89,0-19.33,0-.8.17-1.12,1.09-1a13.48,13.48,0,0,0,2.91,0c1-.1,1.1.25,1.1,1,0,7.12,0,14.23,0,21.35,0,1,0,2,0,3s-.27,1.05-1.08,1Q43.39,69.89,30.6,69.91Z"/><path class="cls-2" d="M55.46,36.36A18.33,18.33,0,1,1,70.25,21.5,18.37,18.37,0,0,1,55.46,36.36ZM57.33,5.27a14.23,14.23,0,0,0-19.42,13A14.39,14.39,0,0,0,51.7,32.81c9.74.2,17.63-9.29,13.81-19.25A14.54,14.54,0,0,0,57.33,5.27Z"/><path class="cls-2" d="M32.36,45.52c3.69,0,7.38,0,11.07,0,.67,0,1,.15.92.89-.11,1,.43,2.35-.24,3s-1.92.17-2.91.17c-6.68,0-13.35,0-20,0-.76,0-1.13-.15-1-1s-.42-2.26.23-2.89,1.85-.16,2.82-.17C26.26,45.5,29.31,45.52,32.36,45.52Z"/><path class="cls-2" d="M24.25,41.66c-1,0-2,0-3,.05-.82,0-1.22-.12-1.11-1s-.42-2.27.23-2.9,1.86-.16,2.82-.16c4.53,0,9.06,0,13.59,0,.91,0,1.19.28,1.11,1.15a12.26,12.26,0,0,0,0,2c.05.71-.23.93-.93.92C32.74,41.66,28.49,41.73,24.25,41.66Z"/><path class="cls-2" d="M23.58,33.62c-.86,0-1.72,0-2.58,0-.61,0-.89-.14-.84-.79.07-1-.41-2.35.18-3s1.95-.21,3-.23c2.24,0,4.49,0,6.74,0,.74,0,1.07.16,1,1a10.11,10.11,0,0,0,0,2.13c.07.72-.15,1-.8.95C28,33.6,25.8,33.67,23.58,33.62Z"/><path class="cls-1" d="M50.08,26.24c-.34,0-.47-.2-.64-.36-2-2-4-4-6-6-.36-.35-.45-.65,0-1,0,0,.09-.1.14-.15.74-.67,1.32-1.9,2.19-1.95s1.44,1.24,2.2,1.88,1.28,1.89,2.12,1.81,1.36-1.18,2-1.84c2-2.06,4-4.12,6-6.2a.77.77,0,0,1,1.16,0c.54.61,1.13,1.18,1.73,1.74,1,.89,0,1.11-5.89,5.12C53,20.71,51.8,23,50.89,25.34A2.61,2.61,0,0,1,50.08,26.24Z"/></g></g></svg>