<svg xmlns="http://www.w3.org/2000/svg" viewBox="0 0 69.24 65.87"><defs><style>.cls-1{fill:#ed2424;}</style></defs><g id="Layer_2" data-name="Layer 2"><g id="Layer_1-2" data-name="Layer 1"><path class="cls-1" d="M0,19.47a19.21,19.21,0,0,1,1.2-7.74C3.52,5.76,7.7,2,13.71.53,19.9-.94,25.4.67,30.18,5a22.3,22.3,0,0,1,4.26,5.29c.18.31.18.31.37,0a21.7,21.7,0,0,1,7.81-7.91A16.78,16.78,0,0,1,49.22.16,17.29,17.29,0,0,1,62.65,4.05a18,18,0,0,1,6.19,10.54,26.22,26.22,0,0,1,.34,6.56,37.08,37.08,0,0,1-.84,6.48,26.91,26.91,0,0,1-4.44,9.8,54.6,54.6,0,0,1-6.21,7c-3.1,3-6.34,5.89-9.54,8.79-4.51,4.07-9,8.2-13.3,12.49-.18.18-.28.18-.46,0-3.59-3.57-7.28-7-11-10.43-3-2.72-6-5.43-9-8.17a82,82,0,0,1-7.1-7.22A28.83,28.83,0,0,1,1.16,28.67a33.77,33.77,0,0,1-1-6.18C.08,21.55,0,20.61,0,19.47Z"/></g></g></svg>